<svg width="1000" height="1000" viewBox="0 0 1000 1000" fill="none" xmlns="http://www.w3.org/2000/svg">
<g clip-path="url(#clip0_43344_12630)">
<rect width="1000" height="1000" fill="url(#paint0_linear_43344_12630)"/>
<path d="M517.843 806.581H541.488V771.932L553.384 760.24H624.583L636.483 771.953V864.354L624.583 875.761H553.384L541.488 864.354V829.705H517.843V875.756H494.048V760.24H517.843V806.581ZM339.734 771.958V794.895H316.11V783.343H256.796V852.642H316.11V841.257H339.734V864.36L328.011 875.745H244.729L233 864.36V771.958L244.729 760.245H328.011L339.734 771.958ZM767 771.958V806.607L755.271 818.159L767 829.711V864.36L755.271 875.745H671.988L660.265 864.36V841.257H684.056V852.642H743.376V829.711H707.685V806.607H743.376V783.343H684.056V794.895H660.265V771.958L671.988 760.245H755.271L767 771.958ZM470.265 771.953V864.334L458.515 875.74H375.232L363.52 864.334V771.932L375.232 760.24H458.515L470.265 771.953ZM387.315 852.637H446.619V783.358H387.315V852.637ZM565.284 852.637H612.87V783.358H565.284V852.637Z" fill="url(#paint1_linear_43344_12630)"/>
<path fill-rule="evenodd" clip-rule="evenodd" d="M244.414 232.943L127.808 311.574C124.803 313.6 123 316.988 123 320.612V463.389C123 469.411 127.883 474.292 133.906 474.292C136.08 474.292 138.203 473.643 140.005 472.428L256.61 393.797C259.616 391.77 261.417 388.384 261.417 384.759V241.981C261.417 235.96 256.535 231.079 250.512 231.079C248.338 231.079 246.215 231.728 244.414 232.943ZM303.362 198.988V702.096C303.362 708.118 308.244 712.998 314.267 712.998C316.44 712.998 318.564 712.35 320.366 711.135L474.721 607.048C477.726 605.021 479.528 601.634 479.528 598.01V94.9021C479.528 88.8809 474.646 83.9995 468.623 83.9995C466.45 83.9995 464.326 84.649 462.525 85.8638L308.169 189.95C305.164 191.976 303.362 195.365 303.362 198.988ZM521.472 198.988V702.096C521.472 708.118 526.355 712.998 532.378 712.998C534.551 712.998 536.675 712.35 538.476 711.135L692.831 607.048C695.837 605.021 697.639 601.634 697.639 598.01V94.9021C697.639 88.8809 692.756 83.9995 686.733 83.9995C684.56 83.9995 682.436 84.649 680.635 85.8638L526.279 189.95C523.274 191.976 521.472 195.365 521.472 198.988ZM860.996 232.943L744.39 311.574C741.385 313.6 739.583 316.988 739.583 320.612V463.389C739.583 469.411 744.466 474.292 750.489 474.292C752.662 474.292 754.786 473.643 756.587 472.428L873.193 393.797C876.198 391.77 878 388.384 878 384.759V241.981C878 235.96 873.118 231.079 867.095 231.079C864.921 231.079 862.797 231.728 860.996 232.943Z" fill="url(#paint2_linear_43344_12630)"/>
<path d="M280.9 725.041C268.94 725.041 266.2 736.491 266.2 736.491H282.9C286.06 736.491 288.62 733.931 288.62 730.771C288.62 727.611 286.06 725.041 282.9 725.041H280.9Z" fill="#B2A1CE"/>
<path d="M236.04 706.057C224.08 706.057 221.34 717.507 221.34 717.507H238.04C241.2 717.507 243.76 714.947 243.76 711.787C243.76 708.627 241.2 706.067 238.04 706.067H236.04V706.057Z" fill="#B2A1CE"/>
<path d="M697.55 616.46C696.13 621.46 694.6 626.32 693.01 631.07C675.73 682.28 650.2 718.38 650.2 718.38H602.58C607.72 710.82 611.19 701.94 613.45 692.74C615.89 682.97 616.97 672.83 617.33 663.59C618.11 643.89 615.57 628.13 615.57 628.13C502.26 625.76 504.32 520.28 573.33 475.99L698.72 481.38C714.4 527.91 709.22 575.92 697.56 616.47L697.55 616.46Z" fill="#D9CCE6"/>
<path d="M649.13 718.38H590.91C590.91 705.09 601.69 694.31 614.98 694.31H649.13V718.38Z" fill="#D9CCE6"/>
<path d="M436.42 707.88C330.37 722.35 230.42 717.54 230.42 717.54C230.42 707.22 234.26 697.72 240.65 690.49C247.04 683.25 255.99 678.28 266.22 676.97C272.82 676.15 280.08 675.21 287.82 674.16C303.44 672.01 320.92 669.43 338.46 666.42C369.24 661.15 400.19 654.59 421.75 647.06L436.43 707.88H436.42Z" fill="#D9CCE6"/>
<path d="M365.06 693.45C365.06 693.45 329.4 702.83 287.82 674.16C303.44 672.01 320.92 669.43 338.46 666.42L365.06 693.45Z" fill="#B2A1CE"/>
<path d="M771.224 399.407C774.337 412.377 775.121 426.177 773.258 440.041C770.445 461.132 761.582 480.899 747.645 497.195C732.341 515.085 760.756 504.383 735.294 512.5L723.574 476.267C740.936 465.124 703.796 462.675 716.383 436.066C727.412 412.755 725.393 384.372 706.218 371.95C684.712 357.997 655.213 360.95 622.972 380.177C622.163 380.646 621.353 381.142 620.543 381.638C594.149 397.976 571.328 407.585 550.785 411.048C541.354 412.645 532.469 412.908 524.185 411.804C514.839 410.593 506.243 407.668 498.495 403.032C480.163 392.065 467.621 371.947 462.249 344.803C461.5 340.991 460.935 337.294 460.513 333.823C459.234 323.166 466.238 313.698 476.069 311.354C477.962 310.894 479.994 310.709 482.064 310.834C491.958 311.427 499.964 319.015 501.179 328.839C502.925 342.938 507.704 360.84 519.479 367.873C524.114 370.656 530.045 371.834 537.13 371.478C552.768 370.688 573.968 362.304 599.017 346.822C603.44 344.093 607.855 341.584 612.255 339.316C631.837 329.134 651.115 323.508 669.717 322.507C691.162 321.355 711.472 326.58 728.479 337.599C750.118 351.616 765.144 373.988 771.224 399.407Z" fill="white"/>
<path d="M623.5 692.81C593.66 704.8 559.96 713.63 525.6 720.09C510.55 722.92 495.37 725.32 480.35 727.3C437.06 733.05 394.94 735.63 360.4 736.68C356.54 736.79 352.8 736.89 349.14 736.98C306.13 737.89 277.41 736.52 277.41 736.52C277.41 726.22 281.25 716.73 287.64 709.47C294.03 702.23 302.98 697.26 313.21 695.98C322.73 694.79 333.6 693.38 345.24 691.69C349.26 691.12 353.39 690.53 357.57 689.89C380.01 686.51 404.28 682.36 426.2 677.58C450.56 672.24 472 666.1 484.85 659.27L476.47 645.69L439.85 586.4C470.08 568.04 493.57 547.59 513.73 527.68C528.96 512.63 542.27 497.89 555.14 484.6C594.16 444.26 629.07 417.14 700.75 434.81C840.41 469.24 757.6 638.89 623.49 692.82L623.5 692.81Z" fill="white"/>
<path d="M646.54 494.91C577.52 539.21 575.46 644.69 688.78 647.06C688.78 647.06 698.57 703.89 676.33 736.5H723.97C723.97 736.5 810.37 614.32 771.92 500.31L646.54 494.91Z" fill="white"/>
<path d="M608.09 537.04C583.7 585.51 603.79 645.28 688.78 647.06" stroke="#8775B4" stroke-width="0.64" stroke-miterlimit="10"/>
<path d="M749.31 458.72C749.31 458.72 763.43 467.21 769.73 490.8" stroke="#8775B4" stroke-width="0.64" stroke-miterlimit="10"/>
<path d="M318.09 606.61C288.25 541.07 337.66 472.05 337.66 472.05L380.03 565.84L318.09 606.61Z" fill="url(#paint3_linear_43344_12630)"/>
<path d="M335.32 569.79C325.11 547.38 342.01 523.77 342.01 523.77L356.5 555.84L335.32 569.78V569.79Z" fill="url(#paint4_linear_43344_12630)"/>
<path d="M479.86 580.11C480.86 508.1 407.87 464.75 407.87 464.75L406.75 567.66L479.85 580.11H479.86Z" fill="white"/>
<path d="M449.08 554.3C449.95 529.69 425.32 514.33 425.32 514.33L424.18 549.51L449.08 554.3Z" fill="url(#paint5_linear_43344_12630)"/>
<path d="M512.68 612.54C512.09 651.31 467.11 686.44 408.41 692.54C355.42 698.06 308.48 678.13 293.57 646.35C291.13 641.12 289.53 635.57 288.94 629.78C284.76 589.64 329.08 551.97 388.62 544.26C390.06 544.08 391.5 543.92 392.94 543.76C393.24 543.74 393.53 543.69 393.83 543.67C425.13 540.56 454.26 546.36 475.84 558.21L475.89 558.23C489.93 565.92 500.75 576.2 506.94 588.25C509.86 593.96 511.76 600.08 512.42 606.51C512.63 608.52 512.72 610.53 512.69 612.54H512.68Z" fill="white"/>
<path d="M428.55 593.93C434.421 593.93 439.18 589.171 439.18 583.3C439.18 577.429 434.421 572.67 428.55 572.67C422.679 572.67 417.92 577.429 417.92 583.3C417.92 589.171 422.679 593.93 428.55 593.93Z" fill="#3D277A"/>
<path d="M414.47 644.52C414.95 651.77 409.6 658.16 402.32 658.94C396.03 659.62 390.28 655.92 388.14 650.27C395.04 648.03 399.23 640.9 397.63 633.7C399.32 641.32 406.85 646.16 414.48 644.51L414.47 644.52Z" fill="url(#paint6_linear_43344_12630)"/>
<path d="M397.619 633.71C399.309 641.33 406.839 646.17 414.469 644.52C414.489 644.52 414.519 644.52 414.539 644.52C422.209 642.82 427.039 635.25 425.369 627.6" stroke="#8775B4" stroke-width="0.66" stroke-miterlimit="10"/>
<path d="M369.899 639.82C371.599 647.47 379.169 652.3 386.819 650.63C387.269 650.54 387.719 650.42 388.139 650.28C395.039 648.04 399.229 640.91 397.629 633.71" stroke="#8775B4" stroke-width="0.66" stroke-miterlimit="10"/>
<path d="M384.12 617.42L403.84 613.54L396.66 627.47L384.12 617.42Z" fill="url(#paint7_linear_43344_12630)"/>
<path d="M721.99 736.494H663.77C663.77 736.494 662.86 713.234 687.84 713.234H721.99V736.494Z" fill="white"/>
<path d="M388.62 544.25C393.99 613.54 365.42 642.24 293.58 646.35C291.14 641.12 289.54 635.57 288.95 629.78C284.77 589.64 329.09 551.97 388.63 544.26L388.62 544.25Z" fill="url(#paint8_linear_43344_12630)"/>
<path d="M551.76 567.84C522.26 573.71 508.63 551.33 513.72 527.68C528.95 512.63 542.26 497.89 555.13 484.6C555.13 484.6 555.147 484.593 555.18 484.58C647.14 453.35 602.55 557.73 551.76 567.84Z" fill="url(#paint9_linear_43344_12630)"/>
<path d="M539.01 633.57C582.64 636.45 582.98 580.33 555.08 588.48C527.18 596.63 503.18 631.2 539.01 633.57Z" fill="url(#paint10_linear_43344_12630)"/>
<path d="M355.781 609.209C363.443 606.016 367.065 597.215 363.871 589.553C360.677 581.892 351.876 578.27 344.215 581.464C336.553 584.658 332.931 593.458 336.125 601.12C339.319 608.782 348.119 612.403 355.781 609.209Z" fill="white"/>
<path d="M360.65 595.3C360.65 601.17 355.89 605.93 350.02 605.93C344.15 605.93 339.39 601.17 339.39 595.3C339.39 589.43 344.15 584.67 350.02 584.67C355.89 584.67 360.65 589.43 360.65 595.3Z" fill="#3D277A"/>
<path d="M428.55 598.33C436.85 598.33 443.58 591.601 443.58 583.3C443.58 574.999 436.85 568.27 428.55 568.27C420.249 568.27 413.52 574.999 413.52 583.3C413.52 591.601 420.249 598.33 428.55 598.33Z" stroke="#8775B4" stroke-width="0.64" stroke-miterlimit="10"/>
<path d="M353.07 594.78C354.749 594.78 356.11 593.419 356.11 591.74C356.11 590.061 354.749 588.7 353.07 588.7C351.391 588.7 350.03 590.061 350.03 591.74C350.03 593.419 351.391 594.78 353.07 594.78Z" fill="white"/>
<path d="M430.32 582.2C431.999 582.2 433.36 580.839 433.36 579.16C433.36 577.481 431.999 576.12 430.32 576.12C428.641 576.12 427.28 577.481 427.28 579.16C427.28 580.839 428.641 582.2 430.32 582.2Z" fill="white"/>
<path d="M436.64 675.2C471.52 668.37 484.84 633.68 484.84 633.68" stroke="#8775B4" stroke-width="0.64" stroke-miterlimit="10"/>
<path d="M238.7 525.22L260.4 546.93V525.22H238.7Z" fill="url(#paint11_linear_43344_12630)"/>
<path d="M288.43 463.71H210.67C209.185 463.71 207.98 464.914 207.98 466.4V526.85C207.98 528.336 209.185 529.54 210.67 529.54H288.43C289.916 529.54 291.12 528.336 291.12 526.85V466.4C291.12 464.914 289.916 463.71 288.43 463.71Z" fill="url(#paint12_linear_43344_12630)"/>
<path d="M239.651 481.33C247.301 481.33 249.551 486.96 249.551 486.96C249.551 486.96 251.801 481.33 259.451 481.33C267.101 481.33 274.981 493.49 249.541 514.64C224.111 493.48 231.991 481.33 239.641 481.33H239.651Z" fill="url(#paint13_linear_43344_12630)"/>
</g>
<defs>
<linearGradient id="paint0_linear_43344_12630" x1="35.7143" y1="75" x2="1109.13" y2="298.224" gradientUnits="userSpaceOnUse">
<stop stop-color="#4C1D95"/>
<stop offset="1" stop-color="#881D95"/>
</linearGradient>
<linearGradient id="paint1_linear_43344_12630" x1="233" y1="818.001" x2="761.72" y2="818.001" gradientUnits="userSpaceOnUse">
<stop stop-color="#FF8888"/>
<stop offset="1" stop-color="#E47AFF"/>
</linearGradient>
<linearGradient id="paint2_linear_43344_12630" x1="123" y1="398.499" x2="870.535" y2="398.499" gradientUnits="userSpaceOnUse">
<stop stop-color="#FF8888"/>
<stop offset="1" stop-color="#E47AFF"/>
</linearGradient>
<linearGradient id="paint3_linear_43344_12630" x1="308.512" y1="539.33" x2="379.323" y2="539.33" gradientUnits="userSpaceOnUse">
<stop stop-color="#FFF3F3"/>
<stop offset="1" stop-color="#FCF2FF"/>
</linearGradient>
<linearGradient id="paint4_linear_43344_12630" x1="332.042" y1="546.78" x2="356.258" y2="546.78" gradientUnits="userSpaceOnUse">
<stop stop-color="#FF8888"/>
<stop offset="1" stop-color="#E47AFF"/>
</linearGradient>
<linearGradient id="paint5_linear_43344_12630" x1="424.18" y1="534.315" x2="448.856" y2="534.315" gradientUnits="userSpaceOnUse">
<stop stop-color="#FF8888"/>
<stop offset="1" stop-color="#E47AFF"/>
</linearGradient>
<linearGradient id="paint6_linear_43344_12630" x1="388.14" y1="646.36" x2="414.239" y2="646.36" gradientUnits="userSpaceOnUse">
<stop stop-color="#FF8888"/>
<stop offset="1" stop-color="#E47AFF"/>
</linearGradient>
<linearGradient id="paint7_linear_43344_12630" x1="384.12" y1="620.505" x2="403.645" y2="620.505" gradientUnits="userSpaceOnUse">
<stop stop-color="#FF8888"/>
<stop offset="1" stop-color="#E47AFF"/>
</linearGradient>
<linearGradient id="paint8_linear_43344_12630" x1="288.677" y1="595.3" x2="388.258" y2="595.3" gradientUnits="userSpaceOnUse">
<stop stop-color="#FFF3F3"/>
<stop offset="1" stop-color="#FCF2FF"/>
</linearGradient>
<linearGradient id="paint9_linear_43344_12630" x1="512.675" y1="523.779" x2="607.499" y2="523.779" gradientUnits="userSpaceOnUse">
<stop stop-color="#FFF3F3"/>
<stop offset="1" stop-color="#FCF2FF"/>
</linearGradient>
<linearGradient id="paint10_linear_43344_12630" x1="520.966" y1="610.674" x2="573.698" y2="610.674" gradientUnits="userSpaceOnUse">
<stop stop-color="#FFF3F3"/>
<stop offset="1" stop-color="#FCF2FF"/>
</linearGradient>
<linearGradient id="paint11_linear_43344_12630" x1="238.7" y1="536.075" x2="260.186" y2="536.075" gradientUnits="userSpaceOnUse">
<stop stop-color="#FFF3F3"/>
<stop offset="1" stop-color="#FCF2FF"/>
</linearGradient>
<linearGradient id="paint12_linear_43344_12630" x1="207.98" y1="496.625" x2="290.298" y2="496.625" gradientUnits="userSpaceOnUse">
<stop stop-color="#FFF3F3"/>
<stop offset="1" stop-color="#FCF2FF"/>
</linearGradient>
<linearGradient id="paint13_linear_43344_12630" x1="232.174" y1="497.985" x2="266.573" y2="497.985" gradientUnits="userSpaceOnUse">
<stop stop-color="#FF8888"/>
<stop offset="1" stop-color="#E47AFF"/>
</linearGradient>
<clipPath id="clip0_43344_12630">
<rect width="1000" height="1000" fill="white"/>
</clipPath>
</defs>
</svg>
